<svg width="25" height="25" xmlns="http://www.w3.org/2000/svg">
 <g id="Layer_1">
  <title>Layer 1</title>
  <ellipse stroke-width="0" ry="12.5" rx="12.5" id="svg_8" cy="12.5" cx="12.5" stroke="#ffffff" fill="#ffffff"/>
  <path id="svg_22" d="m12.53651,6.5476c-0.32796,0 -0.59246,0.2643 -0.59246,0.58996l0,5.43998l-3.58559,1.55984c-0.30008,0.13097 -0.43649,0.47904 -0.30483,0.77756c0.09726,0.22123 0.31432,0.35338 0.54264,0.35338c0.07947,0 0.16072,-0.01593 0.23781,-0.05015l3.92956,-1.70969c0.00297,-0.00118 0.00534,-0.00236 0.00771,-0.00354l0.00237,-0.00118c0.0089,-0.00354 0.01364,-0.0118 0.02194,-0.01475c0.06168,-0.03068 0.1192,-0.06667 0.16546,-0.11504c0.02016,-0.02006 0.03143,-0.04602 0.04685,-0.06902c0.02847,-0.03776 0.0599,-0.07492 0.0771,-0.12035c0.01423,-0.0354 0.01542,-0.07374 0.02254,-0.1115c0.00771,-0.03776 0.02254,-0.07138 0.02254,-0.10973l0,-5.82641c0,-0.32507 -0.26569,-0.58937 -0.59364,-0.58937zm9.26702,1.00705c0,-2.26071 -1.84142,-4.09311 -4.11459,-4.09311c-1.14933,0 -2.18599,0.4696 -2.92967,1.22534c-0.70988,-0.1882 -1.45238,-0.29793 -2.22216,-0.29793c-0.79113,0 -1.55379,0.11504 -2.28147,0.31327c-0.74665,-0.76399 -1.78864,-1.24068 -2.9445,-1.24068c-2.27257,0 -4.11459,1.8324 -4.11459,4.09311c0,1.08847 0.43056,2.07488 1.12739,2.80819c-0.26272,0.82004 -0.40624,1.69317 -0.40624,2.60053c0,4.73558 3.85898,8.57442 8.61941,8.57442c4.76042,0 8.61941,-3.83884 8.61941,-8.57442c0,-0.92918 -0.1536,-1.82119 -0.42818,-2.65952c0.66659,-0.72624 1.0752,-1.68904 1.0752,-2.74919zm-9.26643,12.21268c-3.7724,0 -6.84025,-3.05243 -6.84025,-6.80396c0,-3.75212 3.06785,-6.80455 6.84025,-6.80455c3.7724,0 6.83966,3.05184 6.83966,6.80455c0,3.75271 -3.06845,6.80396 -6.83966,6.80396z" fill="#000000"/>
 </g>
</svg>