<svg width="25" height="25" xmlns="http://www.w3.org/2000/svg">
 <g id="Layer_1">
  <title>Layer 1</title>
  <ellipse ry="12.5" rx="12.5" id="svg_1" cy="12.55051" cx="12.55051" fill="#ff7f00"/>
  <g id="svg_36">
   <path id="svg_22" d="m7.16853,15.82203l10.75429,0l0,2.77671l-10.75429,0l0,-2.77671z" fill="#000000"/>
   <path transform="rotate(-0.140221, 12.5122, 9.56548)" id="svg_24" d="m10.51544,12.21886l1.99637,-5.30724l1.99637,5.30724l-3.99273,0z" fill="#000000"/>
   <path transform="rotate(21.0286, 16.9429, 10.8451)" id="svg_26" d="m14.65088,14.12829l2.29148,-6.56991l2.29148,6.56991l-4.58296,0z" fill="#000000"/>
   <path id="svg_27" d="m7.11803,12.13524l10.80479,0l0,3.43055l-10.80479,0l0,-3.43055z" fill="#000000"/>
   <ellipse ry="0.5303" rx="0.60606" id="svg_32" cy="7.7383" cx="18.05555" fill="#000000"/>
   <path transform="rotate(-21, 8.0534, 10.5895)" id="svg_33" d="m5.762,13.87577l2.29148,-6.56991l2.29148,6.56991l-4.58296,0z" fill="#000000"/>
   <ellipse ry="0.5303" rx="0.60606" id="svg_34" cy="6.93022" cx="12.5" fill="#000000"/>
   <ellipse ry="0.5303" rx="0.60606" id="svg_35" cy="7.48578" cx="6.94445" fill="#000000"/>
  </g>
 </g>

</svg>